<?xml version="1.0" encoding="utf-8"?>
<!-- Generator: Adobe Illustrator 26.4.1, SVG Export Plug-In . SVG Version: 6.00 Build 0)  -->
<svg version="1.1" id="레이어_1" xmlns="http://www.w3.org/2000/svg" xmlns:xlink="http://www.w3.org/1999/xlink" x="0px"
	 y="0px" viewBox="0 0 144 144" style="enable-background:new 0 0 144 144;" xml:space="preserve">
<style type="text/css">
	.st0{fill:#FF7F61;}
	.st1{fill:#FFFFFF;}
</style>
<g>
	<path class="st0" d="M80.83,44.72L77.52,64.5c-0.07,0.42-0.43,0.72-0.85,0.72h-9.34c-0.42,0-0.78-0.3-0.85-0.72l-3.31-19.78
		c-0.09-0.52,0.31-1.01,0.84-1.01h15.97C80.52,43.71,80.92,44.19,80.83,44.72z"/>
	<path class="st0" d="M104.6,0H39.4C17.63,0,0,17.63,0,39.4v65.2C0,126.36,17.63,144,39.4,144h65.2c21.76,0,39.39-17.64,39.39-39.4
		V39.4C143.99,17.63,126.36,0,104.6,0z M112.16,109.42c0,1.89-1.55,3.44-3.44,3.44h-31.1c-0.47,0-0.86-0.39-0.86-0.86v-5.33
		c0-1.93,0.44-3.75,1.22-5.38c1.13-2.36,3-4.32,5.3-5.57c0.18-0.09,0.36-0.19,0.54-0.28c6.28-3.4,10.94-9.41,12.5-16.57
		c0.01-0.05,0.02-0.11,0.02-0.17c0-0.47-0.39-0.86-0.86-0.86h-4.62c-7.21,0-13.7,3.06-18.24,7.95c-0.34,0.37-0.93,0.37-1.27,0
		c-4.53-4.89-11.02-7.95-18.24-7.95h-4.62c-0.47,0-0.86,0.39-0.86,0.86c0,0.06,0.01,0.12,0.02,0.17c1.56,7.16,6.22,13.17,12.5,16.57
		c0.18,0.09,0.36,0.18,0.54,0.28c2.3,1.25,4.16,3.21,5.3,5.57c0.78,1.63,1.22,3.46,1.22,5.38V112c0,0.47-0.39,0.86-0.86,0.86h-31.1
		c-1.89,0-3.44-1.55-3.44-3.44V74.66c0-30.95,11.41-50.05,40.17-50.05s40.17,19.1,40.17,50.05V109.42z"/>
	<path class="st1" d="M72,24.61c-28.76,0-40.17,19.1-40.17,50.05v34.76c0,1.89,1.55,3.44,3.44,3.44h31.1c0.47,0,0.86-0.39,0.86-0.86
		v-5.33c0-1.93-0.44-3.75-1.22-5.38c-1.13-2.36-3-4.32-5.3-5.57c-0.18-0.09-0.36-0.19-0.54-0.28c-6.28-3.4-10.94-9.41-12.5-16.57
		c-0.01-0.05-0.02-0.11-0.02-0.17c0-0.47,0.39-0.86,0.86-0.86h4.62c7.21,0,13.7,3.06,18.24,7.95c0.34,0.37,0.93,0.37,1.27,0
		c4.53-4.89,11.02-7.95,18.24-7.95h4.62c0.47,0,0.86,0.39,0.86,0.86c0,0.06-0.01,0.12-0.02,0.17c-1.56,7.16-6.22,13.17-12.5,16.57
		c-0.18,0.09-0.36,0.18-0.54,0.28c-2.3,1.25-4.16,3.21-5.3,5.57c-0.78,1.63-1.22,3.46-1.22,5.38V112c0,0.47,0.39,0.86,0.86,0.86
		h31.1c1.89,0,3.44-1.55,3.44-3.44V74.66C112.16,43.71,100.75,24.61,72,24.61z M77.52,64.5c-0.07,0.42-0.43,0.72-0.85,0.72h-9.34
		c-0.42,0-0.78-0.3-0.85-0.72l-3.31-19.78c-0.09-0.52,0.31-1.01,0.84-1.01h15.97c0.53,0,0.94,0.48,0.84,1.01L77.52,64.5z"/>
</g>
</svg>
